<svg width="118" height="118" viewBox="0 0 118 118" fill="none" xmlns="http://www.w3.org/2000/svg">
<g filter="url(#filter0_d_302_1755)">
<path d="M107.88 19.3332C107.878 19.3308 107.876 19.3289 107.874 19.3268C107.872 19.3255 107.87 19.3235 107.869 19.3222C107.866 19.319 107.863 19.3158 107.859 19.3126C107.858 19.3113 107.856 19.3096 107.855 19.3083C107.853 19.3066 107.852 19.3051 107.85 19.3033C107.848 19.3016 107.845 19.2988 107.844 19.2969C107.843 19.2965 107.843 19.296 107.842 19.2956C105.347 16.8094 102.335 15.1474 99.1505 14.3089C98.2856 11.0108 96.5993 8.05219 94.1999 5.65302C86.6625 -1.88434 74.3986 -1.88434 66.8612 5.65302C59.9708 12.5435 59.4807 23.1181 64.7708 30.5257L53.9437 41.3528C53.1821 42.1144 52.8513 43.2064 53.0627 44.2628L55.3409 55.6541C55.5961 56.9296 56.593 57.9263 57.8683 58.1815L69.2595 60.4595C70.3275 60.673 71.4163 60.3316 72.1696 59.5784L82.9966 48.7513C90.479 54.0947 101.073 53.482 107.869 46.6609C115.403 39.1283 115.406 26.8716 107.88 19.3332ZM103.313 42.1043C103.282 42.1346 103.252 42.1644 103.222 42.1945C103.221 42.1956 103.219 42.1969 103.218 42.198C97.6337 47.6718 89.194 46.4779 85.1846 42.2008C85.1406 42.1578 85.1219 42.1389 85.0871 42.1043C85.0854 42.1026 85.0821 42.0991 85.08 42.0972C84.484 41.5051 83.6805 41.1568 82.7704 41.1609C82.77 41.1607 82.7539 41.1609 82.7534 41.1611C81.8898 41.176 81.0931 41.5427 80.5717 42.0639C80.5706 42.0639 68.8331 53.8017 68.8322 53.8025L61.2381 52.2838L59.7194 44.6897L71.4176 32.9915C72.0218 32.3873 72.3614 31.5679 72.3614 30.7133C72.3614 29.8586 72.0218 29.0394 71.4176 28.4353C66.3806 23.3981 66.3806 15.2467 71.4176 10.2094C76.4424 5.18466 84.6185 5.18488 89.6435 10.2094C90.6831 11.2491 91.521 12.4526 92.1372 13.7788C87.8955 14.2305 83.7746 16.0783 80.5307 19.3225C79.2723 20.5808 79.2723 22.6205 80.5307 23.8789C81.7888 25.1372 83.8287 25.1372 85.0871 23.8789C90.3675 18.5989 98.6147 19.1936 103.301 23.8666C103.301 23.8673 103.302 23.8683 103.303 23.869C103.304 23.8701 103.305 23.8714 103.307 23.8724C103.309 23.8746 103.311 23.8767 103.313 23.8789C108.337 28.9032 108.337 37.0793 103.313 42.1043Z" fill="#FFC59E"/>
<path d="M43.0302 34.5177L38.4738 29.9613C37.2157 28.703 35.1757 28.703 33.9174 29.9613C32.659 31.2197 32.659 33.2594 33.9174 34.5177L38.4738 39.0742C39.7319 40.3325 41.7719 40.3325 43.0302 39.0742C44.2883 37.8158 44.2883 35.7759 43.0302 34.5177Z" fill="#FFC59E"/>
<path d="M40.7518 42.5645H31.639C29.8597 42.5645 28.417 44.0069 28.417 45.7863C28.417 47.5656 29.8595 49.008 31.639 49.008H40.7518C42.5312 49.008 43.9736 47.5656 43.9736 45.7863C43.9736 44.0069 42.5312 42.5645 40.7518 42.5645Z" fill="#FFC59E"/>
<path d="M49.7413 24.4619C47.962 24.4619 46.5195 25.9044 46.5195 27.6837V36.7965C46.5195 38.5759 47.962 40.0183 49.7413 40.0183C51.5207 40.0183 52.9631 38.5759 52.9631 36.7965V27.6837C52.9633 25.9044 51.5209 24.4619 49.7413 24.4619Z" fill="#FFC59E"/>
<path d="M84.038 75.5256L79.4816 70.9691C78.2233 69.7108 76.1833 69.7108 74.9252 70.9691C73.6669 72.2275 73.6669 74.2672 74.9252 75.5256L79.4816 80.082C80.7397 81.3403 82.7799 81.3403 84.038 80.082C85.2964 78.8236 85.2964 76.7837 84.038 75.5256Z" fill="#FFC59E"/>
<path d="M67.9991 70.0264C66.2198 70.0264 64.7773 71.4688 64.7773 73.2482V82.361C64.7773 84.1403 66.2198 85.5828 67.9991 85.5828C69.7785 85.5828 71.2209 84.1403 71.2209 82.361V73.2482C71.2212 71.4688 69.7785 70.0264 67.9991 70.0264Z" fill="#FFC59E"/>
<path d="M86.3163 60.8213H77.2032C75.4239 60.8213 73.9814 62.2638 73.9814 64.0431C73.9814 65.8224 75.4239 67.2649 77.2032 67.2649H86.3161C88.0956 67.2649 89.5381 65.8224 89.5381 64.0431C89.5381 62.2638 88.0956 60.8213 86.3163 60.8213Z" fill="#FFC59E"/>
<path d="M64.3414 65.4838C63.9978 64.3445 63.0547 63.4871 61.8881 63.2535L52.6032 61.3964L50.746 52.1115C50.5134 50.9479 49.66 50.0067 48.525 49.6612C47.3904 49.3157 46.157 49.6219 45.3152 50.4583L34.5309 61.1779C26.9858 55.8032 16.4166 56.4975 9.65286 63.2612C2.11571 70.7986 2.11571 83.0625 9.65286 90.5999C12.0531 93.0004 15.0141 94.6867 18.3145 95.5514C22.1114 109.973 40.1648 114.766 50.6608 104.269C57.4378 97.4923 58.1423 86.9559 52.7566 79.404L63.5273 68.6979C64.3717 67.8589 64.6847 66.6233 64.3414 65.4838ZM46.1112 76.9238C46.1099 76.9251 46.1086 76.9268 46.1073 76.9281C46.1065 76.929 46.1054 76.9298 46.1046 76.9307C44.8524 78.1798 44.8449 80.2268 46.1046 81.4871C51.1489 86.5316 51.13 94.6873 46.1046 99.7129C38.6175 107.2 25.7601 102.977 24.2867 92.3829C23.6714 87.9603 25.2136 84.1522 27.8787 81.4871C29.1371 80.2288 29.1371 78.189 27.8787 76.9307C26.6206 75.6723 24.5806 75.6723 23.3223 76.9307C20.0784 80.1746 18.2344 84.2949 17.7828 88.5363C16.4552 87.9199 15.2495 87.0838 14.2093 86.0437C9.1845 81.0189 9.1845 72.8429 14.2093 67.8179C19.2343 62.7929 27.4104 62.7931 32.4351 67.8179C33.6909 69.0736 35.7255 69.0764 36.9846 67.8247L45.6038 59.2572L46.7057 64.7664C46.9609 66.042 47.9578 67.0386 49.2331 67.2939L54.6996 68.3872L46.1112 76.9238Z" fill="#FFC59E"/>
</g>
<defs>
<filter id="filter0_d_302_1755" x="0" y="0" width="117.521" height="117.928" filterUnits="userSpaceOnUse" color-interpolation-filters="sRGB">
<feFlood flood-opacity="0" result="BackgroundImageFix"/>
<feColorMatrix in="SourceAlpha" type="matrix" values="0 0 0 0 0 0 0 0 0 0 0 0 0 0 0 0 0 0 127 0" result="hardAlpha"/>
<feOffset dy="4"/>
<feGaussianBlur stdDeviation="2"/>
<feComposite in2="hardAlpha" operator="out"/>
<feColorMatrix type="matrix" values="0 0 0 0 0 0 0 0 0 0 0 0 0 0 0 0 0 0 0.25 0"/>
<feBlend mode="normal" in2="BackgroundImageFix" result="effect1_dropShadow_302_1755"/>
<feBlend mode="normal" in="SourceGraphic" in2="effect1_dropShadow_302_1755" result="shape"/>
</filter>
</defs>
</svg>
